<svg width="1600" height="796" fill="none" xmlns="http://www.w3.org/2000/svg"><path fill-rule="evenodd" clip-rule="evenodd" d="M1600 795.721V0H0v795.721c162.983-56.313 460.274-93.997 800.001-93.997 339.729 0 637.019 37.684 799.999 93.997Z" fill="url(#a)"/><rect x="412" y="114.406" width="183.103" height="620.785" rx="91.551" transform="rotate(-38.669 412 114.406)" fill="url(#b)" fill-opacity=".22"/><rect x="-7" y="-205.594" width="183.103" height="620.785" rx="91.551" transform="rotate(-38.669 -7 -205.594)" fill="#7373FF" fill-opacity=".22"/><rect x="-323" y="-10.594" width="183.103" height="620.785" rx="91.551" transform="rotate(-38.669 -323 -10.594)" fill="#7373FF" fill-opacity=".22"/><rect x="-395" y="308.406" width="183.103" height="620.785" rx="91.551" transform="rotate(-38.669 -395 308.406)" fill="#7373FF" fill-opacity=".22"/><rect width="183.103" height="620.785" rx="91.551" transform="scale(1 -1) rotate(24.438 1515.38 3036.095)" fill="url(#c)" fill-opacity=".22"/><defs><linearGradient id="a" x1="195" y1="395.76" x2="1958.87" y2="-1158.28" gradientUnits="userSpaceOnUse"><stop stop-color="#1A1822"/><stop offset="1" stop-color="#9040E3"/></linearGradient><linearGradient id="b" x1="503.551" y1="114.406" x2="535.384" y2="694.84" gradientUnits="userSpaceOnUse"><stop offset=".236" stop-color="#7373FF"/><stop offset="1" stop-color="#7373FF" stop-opacity="0"/></linearGradient><linearGradient id="c" x1="91.551" y1="0" x2="123.384" y2="580.434" gradientUnits="userSpaceOnUse"><stop offset=".236" stop-color="#7373FF"/><stop offset="1" stop-color="#7373FF" stop-opacity="0"/></linearGradient></defs></svg>