<svg width="400" height="343" fill="none" xmlns="http://www.w3.org/2000/svg"><rect x="81.411" width="268.127" height="217.632" rx="3.013" fill="#F3F1FF"/><rect x="93.463" y="36.273" width="244.025" height="169.27" rx="3.013" fill="#fff"/><rect x="105.513" y="48.363" width="219.924" height="145.088" rx="3.013" fill="#F3F1FF"/><rect x="117.562" y="60.454" width="61.006" height="6.045" rx="3.023" fill="#fff"/><rect x="117.562" y="72.544" width="61.006" height="6.045" rx="3.023" fill="#fff"/><rect x="117.562" y="84.635" width="39.165" height="6.045" rx="3.023" fill="#fff"/><rect x="179.323" y="151.134" width="61.006" height="6.025" rx="3.013" fill="#fff"/><rect x="179.323" y="163.185" width="61.006" height="6.025" rx="3.013" fill="#fff"/><rect x="179.323" y="175.235" width="39.165" height="6.025" rx="3.013" fill="#fff"/><rect x="252.38" y="151.134" width="61.006" height="6.025" rx="3.013" fill="#fff"/><rect x="252.38" y="163.185" width="61.006" height="6.025" rx="3.013" fill="#fff"/><rect x="252.38" y="175.235" width="39.165" height="6.025" rx="3.013" fill="#fff"/><circle cx="99.488" cy="18.136" r="6.025" fill="#C4C4C4"/><circle cx="118.318" cy="18.136" r="6.025" fill="#C4C4C4"/><circle cx="137.146" cy="18.136" r="6.025" fill="#C4C4C4"/><rect x="305.855" y="12.864" width="31.633" height="10.544" rx="5.272" fill="#D9D9D9"/><rect x="213.215" y="62.721" width="186.785" height="36.272" rx="2.845" fill="#FF007A"/><path fill="#F3F1FF" d="M220.746 74.771h12.051v12.051h-12.051z"/><rect x="274.221" y="77.784" width="25.608" height="6.025" rx="3.013" fill="#fff"/><rect x="305.854" y="77.784" width="25.608" height="6.025" rx="3.013" fill="#fff"/><rect x="337.487" y="77.784" width="25.608" height="6.025" rx="3.013" fill="#fff"/><rect x="381.17" y="77.784" width="11.297" height="6.025" rx="3.013" fill="#fff"/><g filter="url(#a)"><rect x="43" y="145.844" width="124.272" height="154.156" rx="3.013" fill="#fff" shape-rendering="crispEdges"/><path d="M57.364 168.978c-.177 0-.314-.048-.41-.144-.096-.105-.145-.249-.145-.434v-7.435c0-.185.049-.326.145-.422a.6.6 0 0 1 .422-.145h2.868c.916 0 1.619.225 2.109.675.498.45.747 1.081.747 1.892 0 .82-.25 1.454-.747 1.904-.49.45-1.193.675-2.11.675H57.93v2.856c0 .185-.048.329-.145.434-.088.096-.228.144-.421.144Zm.566-4.338h2.17c.626 0 1.096-.14 1.41-.422.32-.289.481-.707.481-1.253 0-.546-.16-.956-.482-1.229-.313-.281-.783-.422-1.41-.422H57.93v3.326Zm7.86 4.362c-.4 0-.766-.08-1.096-.241a1.939 1.939 0 0 1-.759-.65 1.651 1.651 0 0 1-.265-.916c0-.434.108-.775.325-1.024.217-.249.583-.426 1.097-.531.514-.112 1.205-.168 2.073-.168h.566v.699h-.542c-.619 0-1.109.028-1.47.084-.354.056-.603.157-.748.301-.144.137-.217.33-.217.579 0 .313.109.57.326.771.225.201.53.301.916.301.305 0 .574-.072.807-.217a1.66 1.66 0 0 0 .554-.602c.137-.257.205-.551.205-.88v-1.386c0-.474-.096-.815-.289-1.024-.193-.217-.518-.325-.976-.325-.265 0-.538.036-.82.108a4.481 4.481 0 0 0-.88.337.525.525 0 0 1-.313.061.403.403 0 0 1-.216-.145.59.59 0 0 1-.085-.253c0-.096.02-.189.06-.277a.419.419 0 0 1 .241-.193 4.35 4.35 0 0 1 1.049-.374c.353-.08.683-.12.988-.12.522 0 .952.084 1.29.253.337.161.59.414.759.759.168.338.253.771.253 1.302v3.181c0 .185-.044.325-.133.422-.088.096-.217.144-.385.144a.522.522 0 0 1-.386-.144c-.088-.097-.133-.237-.133-.422v-.856h.109a1.804 1.804 0 0 1-.362.772 1.809 1.809 0 0 1-.662.506c-.258.112-.55.168-.88.168Zm6.462 0c-.361 0-.727-.04-1.096-.12a3.3 3.3 0 0 1-1.025-.446.514.514 0 0 1-.192-.205.568.568 0 0 1-.036-.253.472.472 0 0 1 .108-.229.305.305 0 0 1 .205-.108.402.402 0 0 1 .277.06c.313.177.615.301.904.374.297.072.59.108.88.108.441 0 .775-.08 1-.241a.75.75 0 0 0 .337-.639c0-.225-.076-.397-.229-.518-.145-.128-.373-.225-.687-.289l-1.12-.229c-.499-.112-.876-.297-1.133-.554-.25-.265-.374-.603-.374-1.013 0-.361.097-.674.29-.94.2-.273.477-.482.83-.626.354-.145.76-.217 1.218-.217.353 0 .687.048 1 .145.322.088.61.224.868.409a.363.363 0 0 1 .18.217.39.39 0 0 1 .013.253.39.39 0 0 1-.326.314.518.518 0 0 1-.289-.073 2.277 2.277 0 0 0-.723-.337 2.516 2.516 0 0 0-.723-.109c-.434 0-.763.085-.988.253a.801.801 0 0 0-.326.663c0 .209.065.382.193.518.137.137.35.237.639.302l1.12.229c.523.112.917.293 1.182.542.265.241.397.57.397.988 0 .546-.217.98-.65 1.302-.426.313-1 .469-1.724.469Zm5.705 0c-.361 0-.727-.04-1.096-.12a3.3 3.3 0 0 1-1.025-.446.515.515 0 0 1-.193-.205.568.568 0 0 1-.036-.253.472.472 0 0 1 .109-.229.306.306 0 0 1 .205-.108.402.402 0 0 1 .277.06c.313.177.614.301.904.374.297.072.59.108.88.108.441 0 .775-.08 1-.241a.75.75 0 0 0 .337-.639c0-.225-.076-.397-.23-.518-.144-.128-.373-.225-.686-.289l-1.12-.229c-.499-.112-.876-.297-1.133-.554-.25-.265-.374-.603-.374-1.013 0-.361.096-.674.29-.94.2-.273.477-.482.83-.626.354-.145.76-.217 1.218-.217.353 0 .687.048 1 .145.321.088.61.224.868.409a.363.363 0 0 1 .18.217.39.39 0 0 1 .012.253.39.39 0 0 1-.325.314.518.518 0 0 1-.29-.073 2.278 2.278 0 0 0-.722-.337 2.516 2.516 0 0 0-.723-.109c-.434 0-.763.085-.988.253a.8.8 0 0 0-.326.663c0 .209.065.382.193.518.137.137.35.237.639.302l1.12.229c.523.112.916.293 1.181.542.266.241.398.57.398.988 0 .546-.217.98-.65 1.302-.426.313-1 .469-1.724.469Zm5.648-.024a.722.722 0 0 1-.398-.108.785.785 0 0 1-.265-.386l-1.796-4.784a.72.72 0 0 1-.048-.397.429.429 0 0 1 .169-.266.583.583 0 0 1 .35-.096c.136 0 .244.032.325.096.08.065.148.181.204.35l1.64 4.627h-.29l1.687-4.651a.682.682 0 0 1 .217-.314.567.567 0 0 1 .35-.108c.144 0 .265.036.361.108a.53.53 0 0 1 .205.314l1.663 4.651h-.277l1.663-4.651c.056-.161.128-.269.217-.326a.54.54 0 0 1 .325-.096c.145 0 .253.036.325.108a.436.436 0 0 1 .12.29.727.727 0 0 1-.047.361l-1.796 4.784a.668.668 0 0 1-.663.494.724.724 0 0 1-.41-.12.784.784 0 0 1-.265-.374l-1.723-4.724h.555l-1.724 4.724a.785.785 0 0 1-.265.374.689.689 0 0 1-.41.12Zm10.362.024c-.578 0-1.08-.124-1.506-.373a2.524 2.524 0 0 1-.988-1.061c-.233-.457-.35-.996-.35-1.614 0-.466.065-.884.193-1.254.137-.377.33-.699.578-.964a2.43 2.43 0 0 1 .892-.602 3.085 3.085 0 0 1 1.181-.217c.579 0 1.08.124 1.507.373.425.25.755.603.988 1.061.233.45.35.984.35 1.603 0 .466-.07.887-.206 1.265a2.615 2.615 0 0 1-.566.964c-.25.265-.55.47-.904.615a3.17 3.17 0 0 1-1.169.204Zm0-.867c.354 0 .659-.085.916-.253.265-.169.466-.414.603-.735.144-.322.216-.719.216-1.193 0-.707-.156-1.246-.47-1.615-.313-.37-.734-.554-1.265-.554-.345 0-.65.084-.916.253-.257.16-.457.401-.602.723-.145.321-.217.719-.217 1.193 0 .707.157 1.249.47 1.627.321.369.743.554 1.265.554Zm4.695.843c-.185 0-.326-.048-.422-.144-.096-.097-.145-.237-.145-.422v-4.917c0-.184.049-.321.145-.409a.535.535 0 0 1 .398-.145c.168 0 .297.048.385.145.097.088.145.225.145.409v.928h-.12c.128-.482.369-.847.722-1.096.354-.249.8-.39 1.338-.422a.41.41 0 0 1 .313.096c.081.065.125.177.133.338a.52.52 0 0 1-.108.373c-.081.089-.205.141-.374.157l-.217.012c-.53.056-.94.229-1.23.518-.28.289-.42.687-.42 1.193v2.82c0 .185-.05.325-.145.422-.089.096-.221.144-.398.144Zm5.873.024c-.514 0-.968-.12-1.361-.361a2.502 2.502 0 0 1-.904-1.06c-.217-.466-.326-1.009-.326-1.627 0-.627.105-1.165.314-1.615.217-.458.518-.807.904-1.049.393-.249.851-.373 1.373-.373s.972.132 1.35.398c.378.257.631.602.759 1.036h-.132v-3.483c0-.184.044-.321.132-.409.097-.097.233-.145.41-.145.177 0 .313.048.41.145.096.088.144.225.144.409v7.544c0 .185-.048.325-.144.422-.097.096-.233.144-.41.144a.54.54 0 0 1-.398-.144c-.096-.097-.144-.237-.144-.422v-1.097l.132.217c-.12.45-.373.808-.759 1.073-.378.265-.828.397-1.35.397Zm.253-.867c.354 0 .659-.085.916-.253.265-.169.466-.414.603-.735.144-.322.217-.719.217-1.193 0-.707-.157-1.246-.47-1.615-.314-.37-.735-.554-1.266-.554-.345 0-.65.084-.915.253-.258.16-.458.401-.603.723-.145.321-.217.719-.217 1.193 0 .707.157 1.249.47 1.627.321.369.743.554 1.265.554Z" fill="#393333"/><rect x="55.636" y="183.945" width="94.587" height="16.57" rx="8.285" fill="#F3F1FF"/><path d="m63.374 193.789.617-1.124.63 1.124a.54.54 0 0 0 .094.129c.04.032.079.055.118.071.04.016.078.023.118.023a.373.373 0 0 0 .27-.117.402.402 0 0 0 .1-.4.475.475 0 0 0-.053-.124l-.647-1.042 1.336.042a.373.373 0 0 0 .394-.377.373.373 0 0 0-.106-.265c-.067-.074-.163-.111-.288-.111l-1.324.047.665-1.083a.39.39 0 0 0 .04-.106.333.333 0 0 0 .019-.106.401.401 0 0 0-.053-.2.387.387 0 0 0-.324-.2.355.355 0 0 0-.188.059.514.514 0 0 0-.165.176l-.635 1.148-.636-1.165a.402.402 0 0 0-.094-.118.18.18 0 0 0-.035-.029.087.087 0 0 0-.042-.024.13.13 0 0 0-.04-.018.07.07 0 0 0-.036-.011.128.128 0 0 0-.041-.006.128.128 0 0 0-.041-.006.39.39 0 0 0-.277.118.364.364 0 0 0-.118.276c0 .079.024.155.07.23l.654 1.065-1.306-.047a.404.404 0 0 0-.218.058.334.334 0 0 0-.13.136.4.4 0 0 0-.04.182c0 .102.033.19.1.265a.38.38 0 0 0 .288.112l1.324-.042-.671 1.077a.47.47 0 0 0-.041.077.449.449 0 0 0-.024.135.387.387 0 0 0 .394.394c.067 0 .13-.017.189-.053a.437.437 0 0 0 .153-.17ZM76.348 193.789l.618-1.124.63 1.124a.54.54 0 0 0 .094.129c.04.032.078.055.118.071.039.016.078.023.117.023a.373.373 0 0 0 .27-.117.402.402 0 0 0 .1-.4.475.475 0 0 0-.052-.124l-.647-1.042 1.335.042a.373.373 0 0 0 .394-.377.373.373 0 0 0-.105-.265c-.067-.074-.163-.111-.289-.111l-1.323.047.664-1.083a.393.393 0 0 0 .041-.106.333.333 0 0 0 .018-.106.401.401 0 0 0-.053-.2.387.387 0 0 0-.323-.2.355.355 0 0 0-.189.059.514.514 0 0 0-.164.176l-.636 1.148-.635-1.165a.402.402 0 0 0-.094-.118.183.183 0 0 0-.036-.029.087.087 0 0 0-.041-.024.13.13 0 0 0-.041-.018.07.07 0 0 0-.035-.011.128.128 0 0 0-.042-.006.128.128 0 0 0-.04-.006.39.39 0 0 0-.277.118.364.364 0 0 0-.118.276c0 .079.023.155.07.23l.654 1.065-1.307-.047a.404.404 0 0 0-.217.058.334.334 0 0 0-.13.136.4.4 0 0 0-.041.182c0 .102.033.19.1.265a.38.38 0 0 0 .288.112l1.324-.042-.67 1.077a.478.478 0 0 0-.042.077.46.46 0 0 0-.023.135.387.387 0 0 0 .394.394c.067 0 .13-.017.188-.053a.438.438 0 0 0 .153-.17ZM89.323 193.789l.618-1.124.63 1.124a.54.54 0 0 0 .093.129c.04.032.079.055.118.071.04.016.078.023.118.023a.373.373 0 0 0 .27-.117.387.387 0 0 0 .118-.283.479.479 0 0 0-.07-.241l-.648-1.042 1.336.042a.373.373 0 0 0 .394-.377.373.373 0 0 0-.106-.265c-.067-.074-.163-.111-.288-.111l-1.324.047.665-1.083a.394.394 0 0 0 .04-.106.333.333 0 0 0 .019-.106.401.401 0 0 0-.053-.2.388.388 0 0 0-.324-.2.355.355 0 0 0-.188.059.514.514 0 0 0-.165.176l-.635 1.148-.636-1.165a.39.39 0 0 0-.065-.089.116.116 0 0 0-.03-.029.177.177 0 0 0-.034-.029.087.087 0 0 0-.042-.024.129.129 0 0 0-.04-.018.069.069 0 0 0-.036-.011.128.128 0 0 0-.041-.006.128.128 0 0 0-.041-.006.39.39 0 0 0-.277.118.364.364 0 0 0-.118.276c0 .079.024.155.07.23l.654 1.065-1.306-.047a.404.404 0 0 0-.218.058.334.334 0 0 0-.13.136.4.4 0 0 0-.04.182c0 .102.033.19.1.265a.38.38 0 0 0 .288.112l1.324-.042-.671 1.077a.478.478 0 0 0-.041.077.46.46 0 0 0-.024.135c0 .11.04.204.118.283a.404.404 0 0 0 .276.111c.067 0 .13-.017.189-.053a.436.436 0 0 0 .153-.17ZM102.297 193.789l.618-1.124.629 1.124a.54.54 0 0 0 .095.129.458.458 0 0 0 .117.071.31.31 0 0 0 .118.023.375.375 0 0 0 .271-.117.388.388 0 0 0 .117-.283.504.504 0 0 0-.07-.241l-.648-1.042 1.336.042c.126 0 .222-.038.288-.112a.372.372 0 0 0 .106-.265.372.372 0 0 0-.394-.376l-1.324.047.665-1.083a.386.386 0 0 0 .041-.106.328.328 0 0 0 .018-.106.404.404 0 0 0-.194-.347.334.334 0 0 0-.371.006.512.512 0 0 0-.165.176l-.635 1.148-.636-1.165a.555.555 0 0 0-.129-.147.09.09 0 0 0-.041-.024.138.138 0 0 0-.041-.018.072.072 0 0 0-.036-.011.127.127 0 0 0-.041-.006.127.127 0 0 0-.041-.006.392.392 0 0 0-.277.118.365.365 0 0 0-.117.276c0 .079.023.155.07.23l.653 1.065-1.306-.047a.406.406 0 0 0-.218.058.336.336 0 0 0-.129.136.393.393 0 0 0-.041.182c0 .102.033.19.1.265.07.074.166.112.288.112l1.324-.042-.671 1.077a.56.56 0 0 0-.041.077.45.45 0 0 0-.024.135.39.39 0 0 0 .583.341.434.434 0 0 0 .153-.17ZM115.271 193.789l.618-1.124.63 1.124a.537.537 0 0 0 .094.129.446.446 0 0 0 .118.071.305.305 0 0 0 .117.023.373.373 0 0 0 .271-.117.39.39 0 0 0 .1-.4.469.469 0 0 0-.053-.124l-.647-1.042 1.335.042c.126 0 .222-.038.289-.112a.376.376 0 0 0 .106-.265.376.376 0 0 0-.106-.265c-.067-.074-.163-.111-.289-.111l-1.323.047.664-1.083a.39.39 0 0 0 .042-.106.394.394 0 0 0-.036-.306.384.384 0 0 0-.323-.2.357.357 0 0 0-.189.059.519.519 0 0 0-.164.176l-.636 1.148-.635-1.165a.266.266 0 0 0-.03-.047.3.3 0 0 0-.035-.042.133.133 0 0 0-.029-.029.183.183 0 0 0-.036-.029.086.086 0 0 0-.041-.024.128.128 0 0 0-.041-.018.071.071 0 0 0-.035-.011.133.133 0 0 0-.042-.006.122.122 0 0 0-.041-.006.388.388 0 0 0-.276.118.362.362 0 0 0-.118.276c0 .079.023.155.071.23l.653 1.065-1.307-.047a.4.4 0 0 0-.217.058.338.338 0 0 0-.13.136.406.406 0 0 0-.041.182c0 .102.033.19.1.265a.381.381 0 0 0 .288.112l1.324-.042-.67 1.077a.473.473 0 0 0-.042.077.594.594 0 0 0-.023.135c0 .11.039.204.118.283a.402.402 0 0 0 .276.111.35.35 0 0 0 .188-.053.434.434 0 0 0 .153-.17ZM128.246 193.789l.618-1.124.629 1.124a.54.54 0 0 0 .095.129.458.458 0 0 0 .117.071.31.31 0 0 0 .118.023.375.375 0 0 0 .271-.117.388.388 0 0 0 .117-.283.504.504 0 0 0-.07-.241l-.648-1.042 1.336.042c.126 0 .222-.038.288-.112a.372.372 0 0 0 .106-.265.372.372 0 0 0-.394-.376l-1.324.047.665-1.083a.386.386 0 0 0 .041-.106.328.328 0 0 0 .018-.106.404.404 0 0 0-.194-.347.334.334 0 0 0-.371.006.512.512 0 0 0-.165.176l-.635 1.148-.636-1.165a.555.555 0 0 0-.129-.147.09.09 0 0 0-.041-.024.133.133 0 0 0-.042-.018.066.066 0 0 0-.035-.011.127.127 0 0 0-.041-.006.13.13 0 0 0-.041-.006.392.392 0 0 0-.277.118.365.365 0 0 0-.117.276c0 .079.023.155.07.23l.653 1.065-1.306-.047a.406.406 0 0 0-.218.058.33.33 0 0 0-.129.136.393.393 0 0 0-.041.182c0 .102.033.19.1.265.07.074.166.112.288.112l1.324-.042-.671 1.077a.47.47 0 0 0-.041.077.45.45 0 0 0-.024.135.39.39 0 0 0 .583.341.434.434 0 0 0 .153-.17ZM141.22 193.789l.618-1.124.63 1.124a.537.537 0 0 0 .094.129.446.446 0 0 0 .118.071.305.305 0 0 0 .117.023.375.375 0 0 0 .271-.117.39.39 0 0 0 .1-.4.469.469 0 0 0-.053-.124l-.647-1.042 1.335.042c.126 0 .222-.038.289-.112a.376.376 0 0 0 .106-.265.376.376 0 0 0-.106-.265c-.067-.074-.163-.111-.289-.111l-1.323.047.664-1.083a.39.39 0 0 0 .042-.106.394.394 0 0 0-.036-.306.384.384 0 0 0-.323-.2.357.357 0 0 0-.189.059.519.519 0 0 0-.164.176l-.636 1.148-.635-1.165a.389.389 0 0 0-.094-.118.183.183 0 0 0-.036-.029.086.086 0 0 0-.041-.024.128.128 0 0 0-.041-.018.071.071 0 0 0-.035-.011.133.133 0 0 0-.042-.006.122.122 0 0 0-.041-.006.388.388 0 0 0-.276.118.362.362 0 0 0-.118.276c0 .079.023.155.071.23l.653 1.065-1.307-.047a.4.4 0 0 0-.217.058.338.338 0 0 0-.13.136.406.406 0 0 0-.041.182c0 .102.033.19.1.265a.381.381 0 0 0 .288.112l1.324-.042-.67 1.077a.473.473 0 0 0-.042.077.594.594 0 0 0-.023.135.388.388 0 0 0 .582.341.434.434 0 0 0 .153-.17Z" fill="#FF007A"/><path d="M60.895 219.154c-.843 0-1.566-.176-2.169-.53a3.567 3.567 0 0 1-1.398-1.506c-.321-.659-.482-1.434-.482-2.326 0-.667.093-1.265.278-1.796.184-.538.45-.996.795-1.373a3.358 3.358 0 0 1 1.265-.88c.506-.201 1.077-.301 1.711-.301.482 0 .944.068 1.386.205.45.136.836.329 1.157.578a.633.633 0 0 1 .253.301c.04.113.044.221.012.326a.504.504 0 0 1-.157.253.454.454 0 0 1-.277.108.65.65 0 0 1-.361-.132 2.73 2.73 0 0 0-.928-.47 3.473 3.473 0 0 0-1.06-.157c-.62 0-1.145.133-1.58.398-.425.257-.75.634-.975 1.132-.217.49-.326 1.093-.326 1.808 0 .707.109 1.314.326 1.82.225.498.55.879.976 1.144.434.258.96.386 1.578.386a3.59 3.59 0 0 0 1.073-.157 3.03 3.03 0 0 0 .952-.482c.128-.088.245-.128.35-.12a.454.454 0 0 1 .277.108c.072.057.12.137.144.241a.485.485 0 0 1 0 .302.545.545 0 0 1-.217.277c-.33.281-.723.494-1.18.638-.45.137-.925.205-1.423.205Zm6.202 0c-.578 0-1.08-.124-1.506-.373a2.525 2.525 0 0 1-.988-1.061c-.233-.458-.35-.996-.35-1.614 0-.466.064-.884.193-1.254.137-.377.33-.699.579-.964.248-.265.546-.466.891-.602a3.085 3.085 0 0 1 1.181-.217c.579 0 1.08.124 1.507.373.425.249.755.603.988 1.061.233.45.35.984.35 1.603 0 .466-.07.887-.206 1.265a2.624 2.624 0 0 1-.566.964c-.25.265-.55.47-.904.614a3.149 3.149 0 0 1-1.169.205Zm0-.867c.354 0 .659-.085.916-.253.265-.169.466-.414.603-.735.144-.322.216-.719.216-1.193 0-.707-.156-1.246-.47-1.615-.313-.37-.735-.555-1.265-.555-.345 0-.65.085-.916.253a1.594 1.594 0 0 0-.602.724c-.145.321-.217.719-.217 1.193 0 .707.157 1.249.47 1.626.321.37.743.555 1.265.555Zm4.67.843a.539.539 0 0 1-.397-.144c-.096-.097-.145-.237-.145-.422v-4.917c0-.185.049-.321.145-.41a.539.539 0 0 1 .398-.144c.168 0 .297.048.385.144.097.089.145.225.145.41v.988l-.133-.18c.169-.458.442-.804.82-1.037a2.49 2.49 0 0 1 1.313-.349c.474 0 .864.084 1.17.253.304.169.533.426.686.771.153.346.229.783.229 1.314v3.157c0 .185-.048.325-.145.422-.088.096-.22.144-.397.144-.177 0-.314-.048-.41-.144-.096-.097-.145-.237-.145-.422v-3.097c0-.522-.1-.904-.3-1.145-.202-.241-.523-.361-.965-.361-.514 0-.928.16-1.241.482-.305.313-.458.739-.458 1.277v2.844c0 .377-.185.566-.554.566Zm7.126 0c-.177 0-.314-.048-.41-.144-.096-.097-.145-.237-.145-.422v-4.543h-.723a.483.483 0 0 1-.337-.109.422.422 0 0 1-.12-.313c0-.137.04-.241.12-.313a.483.483 0 0 1 .337-.109h1.025l-.302.289v-.445c0-.772.185-1.358.555-1.76.377-.401.936-.638 1.675-.711l.35-.024c.136-.016.244.004.325.06.08.049.132.113.156.193a.389.389 0 0 1 .012.253.464.464 0 0 1-.108.229.276.276 0 0 1-.217.097l-.337.024c-.458.032-.792.172-1 .421-.21.25-.314.607-.314 1.073v.482l-.157-.181h3.29c.177 0 .31.052.398.157.096.096.145.241.145.434v4.748c0 .184-.045.329-.133.433-.088.105-.225.157-.41.157-.177 0-.313-.052-.41-.157-.096-.104-.144-.249-.144-.433v-4.495h-2.579v4.543c0 .377-.18.566-.542.566Zm3.687-7.314c-.209 0-.373-.057-.494-.169a.636.636 0 0 1-.18-.47c0-.209.06-.366.18-.47.12-.113.285-.169.494-.169.225 0 .394.056.506.169.12.104.181.261.181.47 0 .193-.06.349-.18.47-.113.112-.282.169-.507.169Zm2.74 7.314c-.185 0-.326-.048-.422-.144-.097-.097-.145-.237-.145-.422v-4.917c0-.185.048-.321.145-.41a.539.539 0 0 1 .397-.144c.17 0 .298.048.386.144.096.089.145.225.145.41v.928h-.12c.128-.482.369-.847.722-1.096.354-.25.8-.39 1.338-.422a.411.411 0 0 1 .313.096c.08.064.125.177.133.338a.518.518 0 0 1-.109.373c-.08.088-.205.141-.373.157l-.217.012c-.53.056-.94.229-1.23.518-.28.289-.421.687-.421 1.193v2.82c0 .185-.048.325-.145.422-.088.096-.22.144-.397.144Zm4.28 0a.539.539 0 0 1-.397-.144c-.097-.097-.145-.237-.145-.422v-4.917c0-.185.048-.321.145-.41a.539.539 0 0 1 .397-.144c.169 0 .298.048.386.144.096.089.144.225.144.41v1.025l-.132-.217c.153-.442.398-.784.735-1.025.346-.241.755-.361 1.23-.361.497 0 .899.12 1.204.361.306.233.51.591.615 1.073h-.169c.145-.442.402-.792.771-1.049a2.278 2.278 0 0 1 1.314-.385c.442 0 .803.088 1.085.265.289.169.506.426.65.771.145.338.217.771.217 1.302v3.157c0 .185-.048.325-.145.422a.539.539 0 0 1-.397.144c-.177 0-.314-.048-.41-.144-.096-.097-.144-.237-.144-.422v-3.109c0-.514-.089-.892-.266-1.133-.176-.241-.474-.361-.891-.361-.458 0-.824.16-1.097.482-.265.313-.398.747-.398 1.301v2.82c0 .185-.048.325-.144.422-.089.096-.221.144-.398.144-.177 0-.313-.048-.41-.144-.096-.097-.144-.237-.144-.422v-3.109c0-.514-.089-.892-.265-1.133-.177-.241-.474-.361-.892-.361-.458 0-.823.16-1.097.482-.265.313-.397.747-.397 1.301v2.82c0 .377-.185.566-.555.566Zm13.414 0c-.177 0-.314-.048-.41-.144-.097-.105-.145-.249-.145-.434v-7.435c0-.185.048-.326.145-.422a.594.594 0 0 1 .422-.145h2.868c.915 0 1.618.225 2.108.675.499.45.748 1.081.748 1.892 0 .819-.249 1.454-.748 1.904-.49.45-1.193.675-2.108.675h-2.314v2.856c0 .185-.048.329-.145.434-.088.096-.229.144-.421.144Zm.566-4.338h2.169c.627 0 1.097-.141 1.41-.422.321-.289.482-.707.482-1.253 0-.546-.161-.956-.482-1.229-.313-.281-.783-.422-1.41-.422h-2.169v3.326Zm7.861 4.362c-.402 0-.768-.08-1.097-.241a1.942 1.942 0 0 1-.759-.65 1.651 1.651 0 0 1-.265-.916c0-.434.108-.775.325-1.025.217-.249.582-.425 1.097-.53.514-.112 1.205-.168 2.072-.168h.567v.698h-.543c-.618 0-1.108.029-1.47.085-.353.056-.602.156-.747.301-.144.137-.217.329-.217.579 0 .313.109.57.326.771.225.201.53.301.915.301.306 0 .575-.072.808-.217.233-.153.418-.353.554-.602.137-.258.205-.551.205-.88v-1.386c0-.474-.096-.815-.289-1.024-.193-.217-.518-.326-.976-.326-.265 0-.539.037-.82.109a4.474 4.474 0 0 0-.879.337.535.535 0 0 1-.314.061.414.414 0 0 1-.217-.145.593.593 0 0 1-.084-.253.66.66 0 0 1 .06-.277.42.42 0 0 1 .241-.193 4.354 4.354 0 0 1 1.049-.374c.353-.08.683-.12.988-.12.522 0 .952.084 1.289.253.338.161.591.414.759.759.169.337.253.771.253 1.302v3.181c0 .185-.044.325-.132.422-.088.096-.217.144-.386.144a.521.521 0 0 1-.385-.144c-.089-.097-.133-.237-.133-.422v-.856h.109a1.81 1.81 0 0 1-.362.772 1.823 1.823 0 0 1-.663.506 2.18 2.18 0 0 1-.879.168Zm6.461 0c-.361 0-.727-.04-1.096-.12a3.33 3.33 0 0 1-1.025-.446.53.53 0 0 1-.193-.205.572.572 0 0 1-.036-.253.47.47 0 0 1 .109-.229.304.304 0 0 1 .205-.108.402.402 0 0 1 .277.06c.313.177.614.301.904.373.297.073.59.109.879.109.442 0 .776-.08 1-.241a.75.75 0 0 0 .338-.639c0-.225-.076-.397-.229-.518-.145-.129-.374-.225-.687-.289l-1.121-.229c-.498-.113-.875-.297-1.132-.554-.249-.266-.374-.603-.374-1.013 0-.361.096-.675.289-.94.201-.273.478-.482.832-.626a3.184 3.184 0 0 1 1.217-.217c.353 0 .687.048 1 .144.321.089.611.225.868.41a.363.363 0 0 1 .18.217c.033.08.037.165.012.253a.393.393 0 0 1-.108.205.4.4 0 0 1-.217.108.516.516 0 0 1-.289-.072 2.257 2.257 0 0 0-.723-.337 2.482 2.482 0 0 0-.723-.109c-.434 0-.763.085-.988.253a.801.801 0 0 0-.326.663c0 .209.065.382.193.518.137.137.35.237.639.302l1.121.228c.522.113.915.294 1.18.543.266.241.398.57.398.988 0 .546-.217.98-.651 1.301-.425.314-1 .47-1.723.47Zm5.705 0c-.362 0-.727-.04-1.097-.12a3.324 3.324 0 0 1-1.024-.446.523.523 0 0 1-.193-.205.572.572 0 0 1-.036-.253.462.462 0 0 1 .109-.229.304.304 0 0 1 .204-.108.404.404 0 0 1 .278.06c.313.177.614.301.903.373.298.073.591.109.88.109.442 0 .775-.08 1-.241a.75.75 0 0 0 .338-.639c0-.225-.077-.397-.229-.518-.145-.129-.374-.225-.687-.289l-1.121-.229c-.498-.113-.876-.297-1.133-.554-.249-.266-.373-.603-.373-1.013 0-.361.096-.675.289-.94a1.89 1.89 0 0 1 .831-.626c.354-.145.76-.217 1.218-.217a3.4 3.4 0 0 1 1 .144c.321.089.61.225.867.41a.36.36 0 0 1 .181.217.39.39 0 0 1 .012.253.393.393 0 0 1-.108.205.4.4 0 0 1-.217.108.516.516 0 0 1-.289-.072 2.257 2.257 0 0 0-.723-.337 2.482 2.482 0 0 0-.723-.109c-.434 0-.764.085-.989.253a.803.803 0 0 0-.325.663c0 .209.064.382.193.518.136.137.349.237.639.302l1.12.228c.522.113.916.294 1.181.543.265.241.398.57.398.988 0 .546-.217.98-.651 1.301-.426.314-1 .47-1.723.47Zm5.647-.024a.72.72 0 0 1-.397-.108.792.792 0 0 1-.266-.386l-1.795-4.784a.726.726 0 0 1-.048-.398c.024-.112.08-.2.168-.265a.585.585 0 0 1 .35-.096c.136 0 .245.032.325.096.081.065.149.181.205.35l1.639 4.627h-.289l1.687-4.651a.677.677 0 0 1 .217-.314.566.566 0 0 1 .349-.108.59.59 0 0 1 .362.108.536.536 0 0 1 .205.314l1.663 4.651h-.278l1.663-4.651c.057-.161.129-.269.217-.326a.542.542 0 0 1 .326-.096c.144 0 .253.036.325.108a.438.438 0 0 1 .121.29.72.72 0 0 1-.049.361l-1.795 4.784a.67.67 0 0 1-.663.494.725.725 0 0 1-.41-.12.798.798 0 0 1-.265-.374l-1.723-4.724h.554l-1.723 4.724a.79.79 0 0 1-.265.374.69.69 0 0 1-.41.12Zm10.363.024c-.578 0-1.081-.124-1.506-.373a2.523 2.523 0 0 1-.988-1.061c-.233-.458-.35-.996-.35-1.614 0-.466.064-.884.193-1.254.136-.377.329-.699.578-.964.249-.265.547-.466.892-.602a3.086 3.086 0 0 1 1.181-.217c.578 0 1.081.124 1.506.373.426.249.756.603.989 1.061.232.45.349.984.349 1.603 0 .466-.068.887-.205 1.265a2.615 2.615 0 0 1-.566.964 2.54 2.54 0 0 1-.904.614 3.15 3.15 0 0 1-1.169.205Zm0-.867c.354 0 .659-.085.916-.253a1.57 1.57 0 0 0 .602-.735c.145-.322.217-.719.217-1.193 0-.707-.156-1.246-.47-1.615-.313-.37-.735-.555-1.265-.555-.345 0-.651.085-.916.253a1.59 1.59 0 0 0-.602.724c-.145.321-.217.719-.217 1.193 0 .707.156 1.249.47 1.626.321.37.743.555 1.265.555Zm4.695.843c-.185 0-.326-.048-.422-.144-.097-.097-.145-.237-.145-.422v-4.917c0-.185.048-.321.145-.41a.538.538 0 0 1 .398-.144c.168 0 .297.048.385.144.097.089.145.225.145.41v.928h-.121c.129-.482.37-.847.723-1.096.354-.25.8-.39 1.338-.422a.41.41 0 0 1 .313.096c.081.064.125.177.133.338a.515.515 0 0 1-.109.373c-.08.088-.205.141-.373.157l-.217.012c-.53.056-.94.229-1.229.518-.282.289-.422.687-.422 1.193v2.82c0 .185-.048.325-.145.422-.088.096-.221.144-.397.144Zm5.873.024c-.514 0-.968-.12-1.362-.361a2.497 2.497 0 0 1-.903-1.061c-.217-.466-.326-1.008-.326-1.626 0-.627.105-1.165.313-1.615.217-.458.519-.808.904-1.049.394-.249.852-.373 1.374-.373.522 0 .972.132 1.35.397.377.258.63.603.759 1.037h-.133v-3.483c0-.185.045-.321.133-.41.096-.096.233-.144.41-.144.176 0 .313.048.409.144.097.089.145.225.145.41v7.544c0 .185-.048.325-.145.422-.096.096-.233.144-.409.144a.538.538 0 0 1-.398-.144c-.096-.097-.145-.237-.145-.422v-1.097l.133.217c-.121.45-.374.808-.759 1.073-.378.265-.828.397-1.35.397Zm.253-.867c.354 0 .659-.085.916-.253.265-.169.466-.414.603-.735.144-.322.216-.719.216-1.193 0-.707-.156-1.246-.47-1.615-.313-.37-.735-.555-1.265-.555-.345 0-.651.085-.916.253a1.59 1.59 0 0 0-.602.724c-.145.321-.217.719-.217 1.193 0 .707.156 1.249.47 1.626.321.37.743.555 1.265.555Z" fill="#393333"/><rect x="55.636" y="234.096" width="94.587" height="16.57" rx="8.285" fill="#F3F1FF"/><path d="m63.374 243.941.617-1.124.63 1.124a.54.54 0 0 0 .094.129c.04.031.079.055.118.071.04.015.078.023.118.023a.373.373 0 0 0 .27-.117.387.387 0 0 0 .118-.283.484.484 0 0 0-.07-.241l-.648-1.042 1.336.042a.373.373 0 0 0 .394-.377.373.373 0 0 0-.394-.377l-1.324.047.665-1.082a.403.403 0 0 0 .04-.106.333.333 0 0 0 .019-.106.401.401 0 0 0-.053-.2.387.387 0 0 0-.324-.2.347.347 0 0 0-.188.059.514.514 0 0 0-.165.176l-.635 1.148-.636-1.165a.318.318 0 0 0-.065-.089.12.12 0 0 0-.03-.029.235.235 0 0 0-.035-.03.094.094 0 0 0-.04-.023.13.13 0 0 0-.042-.018.063.063 0 0 0-.035-.012.166.166 0 0 0-.041-.005.128.128 0 0 0-.041-.006.393.393 0 0 0-.277.117.368.368 0 0 0-.118.277c0 .078.024.155.07.229l.654 1.065-1.306-.047a.404.404 0 0 0-.218.059.334.334 0 0 0-.13.136.396.396 0 0 0-.04.182c0 .102.033.19.1.265a.38.38 0 0 0 .288.112l1.324-.042-.671 1.077a.47.47 0 0 0-.041.077.449.449 0 0 0-.024.135c0 .11.04.204.118.282a.4.4 0 0 0 .276.112c.067 0 .13-.017.189-.053a.437.437 0 0 0 .153-.17ZM76.348 243.941l.618-1.124.63 1.124a.54.54 0 0 0 .094.129c.04.031.078.055.118.071.039.015.078.023.117.023a.373.373 0 0 0 .27-.117.387.387 0 0 0 .119-.283.484.484 0 0 0-.07-.241l-.648-1.042 1.335.042a.373.373 0 0 0 .394-.377.373.373 0 0 0-.394-.377l-1.323.047.664-1.082a.406.406 0 0 0 .041-.106.333.333 0 0 0 .018-.106.401.401 0 0 0-.053-.2.387.387 0 0 0-.323-.2.347.347 0 0 0-.189.059.514.514 0 0 0-.164.176l-.636 1.148-.635-1.165a.31.31 0 0 0-.065-.089.12.12 0 0 0-.03-.029.24.24 0 0 0-.035-.03.094.094 0 0 0-.041-.023.13.13 0 0 0-.041-.018.063.063 0 0 0-.035-.012.166.166 0 0 0-.042-.005.128.128 0 0 0-.04-.006.393.393 0 0 0-.277.117.368.368 0 0 0-.118.277c0 .078.023.155.07.229l.654 1.065-1.307-.047a.404.404 0 0 0-.217.059.334.334 0 0 0-.13.136.396.396 0 0 0-.041.182c0 .102.033.19.1.265a.38.38 0 0 0 .288.112l1.324-.042-.67 1.077a.478.478 0 0 0-.042.077.46.46 0 0 0-.023.135c0 .11.039.204.117.282a.4.4 0 0 0 .277.112c.067 0 .13-.017.188-.053a.438.438 0 0 0 .153-.17ZM89.323 243.941l.618-1.124.63 1.124a.54.54 0 0 0 .093.129c.04.031.079.055.118.071.04.015.078.023.118.023a.373.373 0 0 0 .27-.117.387.387 0 0 0 .118-.283.487.487 0 0 0-.07-.241l-.648-1.042 1.336.042a.373.373 0 0 0 .394-.377.373.373 0 0 0-.394-.377l-1.324.047.665-1.082a.407.407 0 0 0 .04-.106.333.333 0 0 0 .019-.106.401.401 0 0 0-.053-.2.388.388 0 0 0-.324-.2.347.347 0 0 0-.188.059.514.514 0 0 0-.165.176l-.635 1.148-.636-1.165a.326.326 0 0 0-.065-.089.116.116 0 0 0-.03-.029.23.23 0 0 0-.034-.03.094.094 0 0 0-.042-.023.129.129 0 0 0-.04-.018.062.062 0 0 0-.036-.012.166.166 0 0 0-.041-.005.128.128 0 0 0-.041-.006.393.393 0 0 0-.277.117.368.368 0 0 0-.118.277c0 .078.024.155.07.229l.654 1.065-1.306-.047a.404.404 0 0 0-.218.059.334.334 0 0 0-.13.136.397.397 0 0 0-.04.182c0 .102.033.19.1.265a.38.38 0 0 0 .288.112l1.324-.042-.671 1.077a.478.478 0 0 0-.041.077.46.46 0 0 0-.024.135c0 .11.04.204.118.282a.4.4 0 0 0 .276.112c.067 0 .13-.017.189-.053a.436.436 0 0 0 .153-.17ZM102.297 243.941l.618-1.124.629 1.124a.54.54 0 0 0 .095.129.488.488 0 0 0 .117.071.33.33 0 0 0 .118.023.375.375 0 0 0 .271-.117.388.388 0 0 0 .117-.283.514.514 0 0 0-.07-.241l-.648-1.042 1.336.042c.126 0 .222-.038.288-.112a.372.372 0 0 0 .106-.265.372.372 0 0 0-.106-.265c-.066-.074-.162-.112-.288-.112l-1.324.047.665-1.082a.4.4 0 0 0 .041-.106.328.328 0 0 0 .018-.106.404.404 0 0 0-.194-.347.326.326 0 0 0-.183-.053.348.348 0 0 0-.188.059.512.512 0 0 0-.165.176l-.635 1.148-.636-1.165a.307.307 0 0 0-.064-.089.118.118 0 0 0-.03-.029.233.233 0 0 0-.035-.03.099.099 0 0 0-.041-.023.138.138 0 0 0-.041-.018.065.065 0 0 0-.036-.012.164.164 0 0 0-.041-.005.127.127 0 0 0-.041-.006.395.395 0 0 0-.277.117.369.369 0 0 0-.117.277c0 .078.023.155.07.229l.653 1.065-1.306-.047a.407.407 0 0 0-.218.059.336.336 0 0 0-.129.136.39.39 0 0 0-.041.182c0 .102.033.19.1.265.07.074.166.112.288.112l1.324-.042-.671 1.077a.56.56 0 0 0-.041.077.45.45 0 0 0-.024.135c0 .11.04.204.118.282a.402.402 0 0 0 .277.112.355.355 0 0 0 .188-.053.434.434 0 0 0 .153-.17ZM115.271 243.941l.618-1.124.63 1.124a.537.537 0 0 0 .094.129.475.475 0 0 0 .118.071.325.325 0 0 0 .117.023.373.373 0 0 0 .271-.117.39.39 0 0 0 .1-.401.477.477 0 0 0-.053-.123l-.647-1.042 1.335.042c.126 0 .222-.038.289-.112a.376.376 0 0 0 .106-.265.376.376 0 0 0-.106-.265c-.067-.074-.163-.112-.289-.112l-1.323.047.664-1.082a.403.403 0 0 0 .042-.106.394.394 0 0 0-.036-.306.384.384 0 0 0-.323-.2.349.349 0 0 0-.189.059.519.519 0 0 0-.164.176l-.636 1.148-.635-1.165a.315.315 0 0 0-.065-.089.133.133 0 0 0-.029-.029.238.238 0 0 0-.036-.03.093.093 0 0 0-.041-.023.128.128 0 0 0-.041-.018.064.064 0 0 0-.035-.012.173.173 0 0 0-.042-.005.122.122 0 0 0-.041-.006.39.39 0 0 0-.276.117.366.366 0 0 0-.118.277c0 .078.023.155.071.229l.653 1.065-1.307-.047a.4.4 0 0 0-.217.059.338.338 0 0 0-.13.136.403.403 0 0 0-.041.182c0 .102.033.19.1.265a.381.381 0 0 0 .288.112l1.324-.042-.67 1.077a.473.473 0 0 0-.042.077.594.594 0 0 0-.023.135c0 .11.039.204.118.282a.398.398 0 0 0 .276.112.35.35 0 0 0 .188-.053.434.434 0 0 0 .153-.17ZM128.246 243.941l.618-1.124.629 1.124a.54.54 0 0 0 .095.129.488.488 0 0 0 .117.071.33.33 0 0 0 .118.023.375.375 0 0 0 .271-.117.388.388 0 0 0 .117-.283.514.514 0 0 0-.07-.241l-.648-1.042 1.336.042c.126 0 .222-.038.288-.112a.372.372 0 0 0 .106-.265.372.372 0 0 0-.106-.265c-.066-.074-.162-.112-.288-.112l-1.324.047.665-1.082a.4.4 0 0 0 .041-.106.328.328 0 0 0 .018-.106.404.404 0 0 0-.194-.347.326.326 0 0 0-.183-.053.348.348 0 0 0-.188.059.512.512 0 0 0-.165.176l-.635 1.148-.636-1.165a.307.307 0 0 0-.064-.089.118.118 0 0 0-.03-.029.233.233 0 0 0-.035-.03.099.099 0 0 0-.041-.023.133.133 0 0 0-.042-.018.06.06 0 0 0-.035-.012.164.164 0 0 0-.041-.005.13.13 0 0 0-.041-.006.395.395 0 0 0-.277.117.369.369 0 0 0-.117.277c0 .078.023.155.07.229l.653 1.065-1.306-.047a.407.407 0 0 0-.218.059.33.33 0 0 0-.129.136.39.39 0 0 0-.041.182c0 .102.033.19.1.265.07.074.166.112.288.112l1.324-.042-.671 1.077a.47.47 0 0 0-.041.077.45.45 0 0 0-.024.135c0 .11.04.204.118.282a.402.402 0 0 0 .277.112.355.355 0 0 0 .188-.053.434.434 0 0 0 .153-.17ZM141.22 243.941l.618-1.124.63 1.124a.537.537 0 0 0 .094.129.475.475 0 0 0 .118.071.325.325 0 0 0 .117.023.375.375 0 0 0 .271-.117.39.39 0 0 0 .1-.401.477.477 0 0 0-.053-.123l-.647-1.042 1.335.042c.126 0 .222-.038.289-.112a.376.376 0 0 0 .106-.265.376.376 0 0 0-.106-.265c-.067-.074-.163-.112-.289-.112l-1.323.047.664-1.082a.403.403 0 0 0 .042-.106.394.394 0 0 0-.036-.306.384.384 0 0 0-.323-.2.349.349 0 0 0-.189.059.519.519 0 0 0-.164.176l-.636 1.148-.635-1.165a.315.315 0 0 0-.03-.048c-.012-.015-.023-.029-.035-.041a.133.133 0 0 0-.029-.029.238.238 0 0 0-.036-.03.093.093 0 0 0-.041-.023.128.128 0 0 0-.041-.018.064.064 0 0 0-.035-.012.173.173 0 0 0-.042-.005.122.122 0 0 0-.041-.006.39.39 0 0 0-.276.117.366.366 0 0 0-.118.277c0 .078.023.155.071.229l.653 1.065-1.307-.047a.4.4 0 0 0-.217.059.338.338 0 0 0-.13.136.403.403 0 0 0-.041.182c0 .102.033.19.1.265a.381.381 0 0 0 .288.112l1.324-.042-.67 1.077a.473.473 0 0 0-.042.077.594.594 0 0 0-.023.135c0 .11.039.204.117.282a.402.402 0 0 0 .277.112.35.35 0 0 0 .188-.053.434.434 0 0 0 .153-.17Z" fill="#FF007A"/><g filter="url(#b)"><rect x="66.547" y="262.717" width="77.177" height="24.101" rx="12.051" fill="#FF007A"/><path d="M89.263 278.267c-.201 0-.358-.056-.47-.168-.113-.113-.169-.27-.169-.47v-7.267c0-.209.052-.365.157-.47.112-.112.269-.169.47-.169.2 0 .353.057.458.169.112.105.168.261.168.47v6.833h3.736c.177 0 .313.048.41.144.096.089.144.217.144.386a.539.539 0 0 1-.144.398c-.097.096-.233.144-.41.144h-4.35Zm8.494.109c-.595 0-1.109-.125-1.543-.374a2.6 2.6 0 0 1-1-1.06c-.24-.458-.361-.996-.361-1.615 0-.474.068-.896.205-1.265.136-.37.33-.687.578-.952.257-.273.563-.478.916-.615a3.211 3.211 0 0 1 1.205-.217c.587 0 1.093.125 1.518.374.434.249.772.602 1.013 1.06.241.45.361.988.361 1.615 0 .466-.068.888-.205 1.265a2.652 2.652 0 0 1-.59.964c-.25.265-.555.47-.916.615a3.244 3.244 0 0 1-1.181.205Zm0-.94c.33 0 .619-.08.868-.241.249-.161.442-.398.578-.711.145-.313.217-.699.217-1.157 0-.691-.153-1.213-.458-1.567-.305-.353-.707-.53-1.205-.53-.337 0-.63.081-.88.241-.249.153-.446.386-.59.699-.137.313-.205.699-.205 1.157 0 .683.153 1.205.458 1.567.305.361.71.542 1.217.542Zm7.043 3.109c-.434 0-.856-.044-1.266-.133a3.567 3.567 0 0 1-1.096-.433.501.501 0 0 1-.241-.241.474.474 0 0 1-.036-.278.597.597 0 0 1 .132-.253.467.467 0 0 1 .229-.144.411.411 0 0 1 .301.048c.354.193.687.321 1.001.385.321.073.618.109.891.109.563 0 .985-.145 1.266-.434.281-.281.421-.699.421-1.253v-1.229h.109a1.792 1.792 0 0 1-.759 1.048 2.358 2.358 0 0 1-1.338.386c-.53 0-.992-.121-1.386-.362a2.52 2.52 0 0 1-.916-1.024c-.216-.442-.325-.956-.325-1.543 0-.441.06-.839.181-1.193.128-.353.305-.658.53-.915a2.34 2.34 0 0 1 .832-.591c.329-.145.69-.217 1.084-.217.514 0 .96.129 1.338.386.385.257.634.606.747 1.048l-.121.205v-1c0-.201.053-.354.157-.458a.628.628 0 0 1 .446-.157c.193 0 .341.052.446.157.104.104.156.257.156.458v4.856c0 .916-.237 1.607-.711 2.073-.474.466-1.164.699-2.072.699Zm-.097-3.374c.354 0 .655-.081.904-.241.249-.161.442-.39.579-.687.136-.297.204-.647.204-1.049 0-.602-.152-1.08-.457-1.434-.298-.353-.707-.53-1.23-.53-.345 0-.642.081-.891.241-.249.161-.446.39-.591.687-.136.289-.205.635-.205 1.036 0 .611.153 1.093.458 1.446.305.354.715.531 1.229.531Zm8.766 1.181c-.201 0-.357-.057-.47-.169-.104-.112-.156-.269-.156-.47v-7.387c0-.209.052-.366.156-.47.113-.112.269-.169.47-.169.201 0 .354.057.458.169.113.104.169.261.169.47v7.387c0 .201-.052.358-.157.47-.104.112-.261.169-.47.169Zm3.189 0c-.193 0-.342-.053-.446-.157-.105-.112-.157-.265-.157-.458v-4.82c0-.201.052-.354.157-.458.104-.105.249-.157.434-.157.192 0 .337.052.433.157.105.104.157.257.157.458v.94l-.133-.217c.177-.45.454-.787.832-1.012.378-.233.811-.35 1.301-.35.466 0 .852.089 1.157.265.314.169.547.43.699.784.153.345.229.783.229 1.313v3.097c0 .193-.052.346-.156.458-.105.104-.254.157-.446.157-.201 0-.354-.053-.458-.157-.105-.112-.157-.265-.157-.458v-3.025c0-.506-.1-.875-.301-1.108-.193-.233-.498-.35-.916-.35-.49 0-.884.153-1.181.458-.289.305-.434.715-.434 1.229v2.796c0 .41-.205.615-.614.615Z" fill="#fff"/></g></g><defs><filter id="a" x=".823" y="103.666" width="208.627" height="238.511" filterUnits="userSpaceOnUse" color-interpolation-filters="sRGB"><feFlood flood-opacity="0" result="BackgroundImageFix"/><feColorMatrix in="SourceAlpha" values="0 0 0 0 0 0 0 0 0 0 0 0 0 0 0 0 0 0 127 0" result="hardAlpha"/><feOffset/><feGaussianBlur stdDeviation="21.089"/><feComposite in2="hardAlpha" operator="out"/><feColorMatrix values="0 0 0 0 0 0 0 0 0 0 0 0 0 0 0 0 0 0 0.1 0"/><feBlend in2="BackgroundImageFix" result="effect1_dropShadow_50_954"/><feBlend in="SourceGraphic" in2="effect1_dropShadow_50_954" result="shape"/></filter><filter id="b" x="65.041" y="261.964" width="80.19" height="27.114" filterUnits="userSpaceOnUse" color-interpolation-filters="sRGB"><feFlood flood-opacity="0" result="BackgroundImageFix"/><feColorMatrix in="SourceAlpha" values="0 0 0 0 0 0 0 0 0 0 0 0 0 0 0 0 0 0 127 0" result="hardAlpha"/><feOffset dy=".753"/><feGaussianBlur stdDeviation=".753"/><feColorMatrix values="0 0 0 0 0.0627451 0 0 0 0 0.0941176 0 0 0 0 0.156863 0 0 0 0.05 0"/><feBlend in2="BackgroundImageFix" result="effect1_dropShadow_50_954"/><feBlend in="SourceGraphic" in2="effect1_dropShadow_50_954" result="shape"/></filter></defs></svg>